Oxanium-ExtraBold.ufo
<glyph name="asterisk" format="2">
  <advance width="521"/>
  <unicode hex="002A"/>
  <outline>
    <contour>
      <point x="41" y="484" type="line"/>
      <point x="80" y="604" type="line"/>
      <point x="196" y="570" type="line"/>
      <point x="196" y="690" type="line"/>
      <point x="326" y="690" type="line"/>
      <point x="326" y="570" type="line"/>
      <point x="442" y="604" type="line"/>
      <point x="480" y="484" type="line"/>
      <point x="366" y="445" type="line"/>
      <point x="436" y="346" type="line"/>
      <point x="334" y="272" type="line"/>
      <point x="260" y="369" type="line"/>
      <point x="187" y="272" type="line"/>
      <point x="86" y="346" type="line"/>
      <point x="155" y="445" type="line"/>
    </contour>
  </outline>
</glyph>
<glyph name="one" format="2">
  <advance width="578"/>
  <unicode hex="0031"/>
  <outline>
    <contour>
      <point x="74" y="0" type="line"/>
      <point x="74" y="157" type="line"/>
      <point x="218" y="157" type="line"/>
      <point x="218" y="533" type="line"/>
      <point x="94" y="533" type="line"/>
      <point x="94" y="630" type="line"/>
      <point x="172" y="690" type="line"/>
      <point x="392" y="690" type="line"/>
      <point x="392" y="157" type="line"/>
      <point x="520" y="157" type="line"/>
      <point x="520" y="0" type="line"/>
    </contour>
  </outline>
</glyph>
<glyph name="two" format="2">
  <advance width="578"/>
  <unicode hex="0032"/>
  <outline>
    <contour>
      <point x="46" y="0" type="line"/>
      <point x="46" y="232" type="line" smooth="yes"/>
      <point x="46" y="375"/>
      <point x="171" y="400" type="qcurve" smooth="yes"/>
      <point x="346" y="435" type="line" smooth="yes"/>
      <point x="358" y="438"/>
      <point x="358" y="451" type="qcurve" smooth="yes"/>
      <point x="358" y="522" type="line" smooth="yes"/>
      <point x="358" y="533"/>
      <point x="347" y="533" type="qcurve" smooth="yes"/>
      <point x="66" y="533" type="line"/>
      <point x="66" y="630" type="line"/>
      <point x="144" y="690" type="line"/>
      <point x="356" y="690" type="line" smooth="yes"/>
      <point x="532" y="690"/>
      <point x="532" y="514" type="qcurve" smooth="yes"/>
      <point x="532" y="450" type="line" smooth="yes"/>
      <point x="532" y="307"/>
      <point x="407" y="282" type="qcurve" smooth="yes"/>
      <point x="232" y="247" type="line" smooth="yes"/>
      <point x="220" y="244"/>
      <point x="220" y="231" type="qcurve" smooth="yes"/>
      <point x="220" y="157" type="line"/>
      <point x="532" y="157" type="line"/>
      <point x="532" y="0" type="line"/>
    </contour>
  </outline>
</glyph>
<glyph name="four" format="2">
  <advance width="578"/>
  <unicode hex="0034"/>
  <outline>
    <contour>
      <point x="46" y="88" type="line"/>
      <point x="46" y="230" type="line"/>
      <point x="247" y="690" type="line"/>
      <point x="395" y="690" type="line"/>
      <point x="415" y="655" type="line"/>
      <point x="236" y="246" type="line"/>
      <point x="358" y="246" type="line"/>
      <point x="358" y="430" type="line"/>
      <point x="532" y="430" type="line"/>
      <point x="532" y="0" type="line"/>
      <point x="358" y="0" type="line"/>
      <point x="358" y="88" type="line"/>
    </contour>
  </outline>
</glyph>
<glyph name="seven" format="2">
  <advance width="578"/>
  <unicode hex="0037"/>
  <outline>
    <contour>
      <point x="46" y="533" type="line"/>
      <point x="46" y="690" type="line"/>
      <point x="532" y="690" type="line"/>
      <point x="532" y="455" type="line"/>
      <point x="294" y="0" type="line"/>
      <point x="138" y="0" type="line"/>
      <point x="118" y="35" type="line"/>
      <point x="358" y="490" type="line"/>
      <point x="358" y="533" type="line"/>
    </contour>
  </outline>
</glyph>
<glyph name="I" format="2">
  <advance width="330"/>
  <unicode hex="0049"/>
  <outline>
    <contour>
      <point x="78" y="0" type="line"/>
      <point x="78" y="690" type="line"/>
      <point x="252" y="690" type="line"/>
      <point x="252" y="0" type="line"/>
    </contour>
  </outline>
</glyph>
<glyph name="L" format="2">
  <advance width="555"/>
  <unicode hex="004C"/>
  <outline>
    <contour>
      <point x="78" y="0" type="line"/>
      <point x="78" y="690" type="line"/>
      <point x="252" y="690" type="line"/>
      <point x="252" y="157" type="line"/>
      <point x="531" y="157" type="line"/>
      <point x="531" y="0" type="line"/>
    </contour>
  </outline>
</glyph>
<glyph name="P" format="2">
  <advance width="642"/>
  <unicode hex="0050"/>
  <outline>
    <contour>
      <point x="78" y="0" type="line"/>
      <point x="78" y="690" type="line"/>
      <point x="418" y="690" type="line" smooth="yes"/>
      <point x="594" y="690"/>
      <point x="594" y="514" type="qcurve" smooth="yes"/>
      <point x="594" y="378" type="line" smooth="yes"/>
      <point x="594" y="203"/>
      <point x="418" y="203" type="qcurve" smooth="yes"/>
      <point x="252" y="203" type="line"/>
      <point x="252" y="0" type="line"/>
    </contour>
    <contour>
      <point x="252" y="360" type="line"/>
      <point x="409" y="360" type="line" smooth="yes"/>
      <point x="420" y="360"/>
      <point x="420" y="371" type="qcurve" smooth="yes"/>
      <point x="420" y="522" type="line" smooth="yes"/>
      <point x="420" y="533"/>
      <point x="409" y="533" type="qcurve" smooth="yes"/>
      <point x="252" y="533" type="line"/>
    </contour>
  </outline>
</glyph>
<glyph name="bracketleft" format="2">
  <advance width="403"/>
  <unicode hex="005B"/>
  <outline>
    <contour>
      <point x="78" y="-180" type="line"/>
      <point x="78" y="760" type="line"/>
      <point x="373" y="760" type="line"/>
      <point x="373" y="615" type="line"/>
      <point x="245" y="615" type="line"/>
      <point x="245" y="-35" type="line"/>
      <point x="373" y="-35" type="line"/>
      <point x="373" y="-180" type="line"/>
    </contour>
  </outline>
</glyph>
<glyph name="s" format="2">
  <advance width="512"/>
  <unicode hex="0073"/>
  <outline>
    <contour>
      <point x="51" y="52" type="line"/>
      <point x="51" y="145" type="line"/>
      <point x="281" y="145" type="line" smooth="yes"/>
      <point x="297" y="145"/>
      <point x="297" y="167" type="qcurve" smooth="yes"/>
      <point x="297" y="190"/>
      <point x="282" y="193" type="qcurve" smooth="yes"/>
      <point x="180" y="210" type="line" smooth="yes"/>
      <point x="51" y="232"/>
      <point x="51" y="363" type="qcurve" smooth="yes"/>
      <point x="51" y="532"/>
      <point x="219" y="532" type="qcurve" smooth="yes"/>
      <point x="368" y="532" type="line"/>
      <point x="438" y="480" type="line"/>
      <point x="438" y="387" type="line"/>
      <point x="232" y="387" type="line" smooth="yes"/>
      <point x="216" y="387"/>
      <point x="216" y="365" type="qcurve" smooth="yes"/>
      <point x="216" y="336"/>
      <point x="232" y="334" type="qcurve" smooth="yes"/>
      <point x="334" y="317" type="line" smooth="yes"/>
      <point x="462" y="296"/>
      <point x="462" y="169" type="qcurve" smooth="yes"/>
      <point x="462" y="0"/>
      <point x="294" y="0" type="qcurve" smooth="yes"/>
      <point x="121" y="0" type="line"/>
    </contour>
  </outline>
</glyph>
<glyph name="v" format="2">
  <advance width="574"/>
  <unicode hex="0076"/>
  <outline>
    <contour>
      <point x="17" y="508" type="line"/>
      <point x="34" y="532" type="line"/>
      <point x="178" y="532" type="line"/>
      <point x="284" y="145" type="line"/>
      <point x="290" y="145" type="line"/>
      <point x="396" y="532" type="line"/>
      <point x="540" y="532" type="line"/>
      <point x="557" y="508" type="line"/>
      <point x="406" y="0" type="line"/>
      <point x="168" y="0" type="line"/>
    </contour>
  </outline>
</glyph>
<glyph name="w" format="2">
  <advance width="846"/>
  <unicode hex="0077"/>
  <outline>
    <contour>
      <point x="21" y="508" type="line"/>
      <point x="38" y="532" type="line"/>
      <point x="179" y="532" type="line"/>
      <point x="246" y="145" type="line"/>
      <point x="250" y="145" type="line"/>
      <point x="331" y="532" type="line"/>
      <point x="515" y="532" type="line"/>
      <point x="596" y="145" type="line"/>
      <point x="600" y="145" type="line"/>
      <point x="667" y="532" type="line"/>
      <point x="808" y="532" type="line"/>
      <point x="825" y="508" type="line"/>
      <point x="727" y="0" type="line"/>
      <point x="482" y="0" type="line"/>
      <point x="423" y="330" type="line"/>
      <point x="364" y="0" type="line"/>
      <point x="119" y="0" type="line"/>
    </contour>
  </outline>
</glyph>
<glyph name="braceleft" format="2">
  <advance width="440"/>
  <unicode hex="007B"/>
  <outline>
    <contour>
      <point x="50" y="242" type="line"/>
      <point x="50" y="324" type="line"/>
      <point x="125" y="398" type="line"/>
      <point x="125" y="592" type="line" smooth="yes"/>
      <point x="125" y="760"/>
      <point x="293" y="760" type="qcurve" smooth="yes"/>
      <point x="410" y="760" type="line"/>
      <point x="410" y="615" type="line"/>
      <point x="305" y="615" type="line" smooth="yes"/>
      <point x="292" y="615"/>
      <point x="292" y="602" type="qcurve" smooth="yes"/>
      <point x="292" y="360" type="line"/>
      <point x="214" y="282" type="line"/>
      <point x="292" y="204" type="line"/>
      <point x="292" y="-22" type="line" smooth="yes"/>
      <point x="292" y="-35"/>
      <point x="305" y="-35" type="qcurve" smooth="yes"/>
      <point x="410" y="-35" type="line"/>
      <point x="410" y="-180" type="line"/>
      <point x="293" y="-180" type="line" smooth="yes"/>
      <point x="125" y="-180"/>
      <point x="125" y="-12" type="qcurve" smooth="yes"/>
      <point x="125" y="166" type="line"/>
    </contour>
  </outline>
</glyph>
<glyph name="bar" format="2">
  <advance width="331"/>
  <unicode hex="007C"/>
  <outline>
    <contour>
      <point x="91" y="-200" type="line"/>
      <point x="91" y="740" type="line"/>
      <point x="240" y="740" type="line"/>
      <point x="240" y="-200" type="line"/>
    </contour>
  </outline>
</glyph>
<glyph name="exclamdown" format="2">
  <advance width="287"/>
  <unicode hex="00A1"/>
  <outline>
    <contour>
      <point x="56" y="371" type="line"/>
      <point x="56" y="532" type="line"/>
      <point x="231" y="532" type="line"/>
      <point x="231" y="371" type="line"/>
    </contour>
    <contour>
      <point x="56" y="-158" type="line"/>
      <point x="56" y="304" type="line"/>
      <point x="230" y="304" type="line"/>
      <point x="230" y="-158" type="line"/>
    </contour>
  </outline>
</glyph>
<glyph name="yen" format="2">
  <advance width="578"/>
  <unicode hex="00A5"/>
  <outline>
    <contour>
      <point x="-2" y="658" type="line"/>
      <point x="18" y="690" type="line"/>
      <point x="167" y="690" type="line"/>
      <point x="289" y="445" type="line"/>
      <point x="411" y="690" type="line"/>
      <point x="560" y="690" type="line"/>
      <point x="580" y="658" type="line"/>
      <point x="416" y="336" type="line"/>
      <point x="496" y="336" type="line"/>
      <point x="496" y="244" type="line"/>
      <point x="376" y="244" type="line"/>
      <point x="376" y="184" type="line"/>
      <point x="496" y="184" type="line"/>
      <point x="496" y="92" type="line"/>
      <point x="376" y="92" type="line"/>
      <point x="376" y="0" type="line"/>
      <point x="202" y="0" type="line"/>
      <point x="202" y="92" type="line"/>
      <point x="82" y="92" type="line"/>
      <point x="82" y="184" type="line"/>
      <point x="202" y="184" type="line"/>
      <point x="202" y="244" type="line"/>
      <point x="82" y="244" type="line"/>
      <point x="82" y="336" type="line"/>
      <point x="162" y="336" type="line"/>
    </contour>
  </outline>
</glyph>
<glyph name="brokenbar" format="2">
  <advance width="331"/>
  <unicode hex="00A6"/>
  <outline>
    <contour>
      <point x="91" y="179" type="line"/>
      <point x="240" y="179" type="line"/>
      <point x="240" y="-200" type="line"/>
      <point x="91" y="-200" type="line"/>
    </contour>
    <contour>
      <point x="91" y="361" type="line"/>
      <point x="91" y="740" type="line"/>
      <point x="240" y="740" type="line"/>
      <point x="240" y="361" type="line"/>
    </contour>
  </outline>
</glyph>
<glyph name="uni00B2" format="2">
  <advance width="369"/>
  <unicode hex="00B2"/>
  <outline>
    <contour>
      <point x="31" y="271" type="line"/>
      <point x="31" y="409" type="line" smooth="yes"/>
      <point x="31" y="507"/>
      <point x="128" y="526" type="qcurve" smooth="yes"/>
      <point x="201" y="540" type="line" smooth="yes"/>
      <point x="208" y="541"/>
      <point x="208" y="550" type="qcurve" smooth="yes"/>
      <point x="208" y="568" type="line" smooth="yes"/>
      <point x="208" y="572"/>
      <point x="204" y="572" type="qcurve" smooth="yes"/>
      <point x="43" y="572" type="line"/>
      <point x="43" y="647" type="line"/>
      <point x="98" y="690" type="line"/>
      <point x="205" y="690" type="line" smooth="yes"/>
      <point x="338" y="690"/>
      <point x="338" y="557" type="qcurve" smooth="yes"/>
      <point x="338" y="544" type="line" smooth="yes"/>
      <point x="338" y="445"/>
      <point x="240" y="426" type="qcurve" smooth="yes"/>
      <point x="168" y="412" type="line" smooth="yes"/>
      <point x="161" y="411"/>
      <point x="161" y="403" type="qcurve" smooth="yes"/>
      <point x="161" y="389" type="line"/>
      <point x="338" y="389" type="line"/>
      <point x="338" y="271" type="line"/>
    </contour>
  </outline>
</glyph>
<glyph name="ordmasculine" format="2">
  <advance width="436"/>
  <unicode hex="00BA"/>
  <outline>
    <contour>
      <point x="41" y="427" type="qcurve" smooth="yes"/>
      <point x="41" y="557" type="line" smooth="yes"/>
      <point x="41" y="690"/>
      <point x="174" y="690" type="qcurve" smooth="yes"/>
      <point x="262" y="690" type="line" smooth="yes"/>
      <point x="395" y="690"/>
      <point x="395" y="557" type="qcurve" smooth="yes"/>
      <point x="395" y="427" type="line" smooth="yes"/>
      <point x="395" y="294"/>
      <point x="262" y="294" type="qcurve" smooth="yes"/>
      <point x="174" y="294" type="line" smooth="yes"/>
      <point x="41" y="294"/>
    </contour>
    <contour>
      <point x="171" y="416" type="line" smooth="yes"/>
      <point x="171" y="412"/>
      <point x="175" y="412" type="qcurve" smooth="yes"/>
      <point x="261" y="412" type="line" smooth="yes"/>
      <point x="265" y="412"/>
      <point x="265" y="416" type="qcurve" smooth="yes"/>
      <point x="265" y="568" type="line" smooth="yes"/>
      <point x="265" y="572"/>
      <point x="261" y="572" type="qcurve" smooth="yes"/>
      <point x="175" y="572" type="line" smooth="yes"/>
      <point x="171" y="572"/>
      <point x="171" y="568" type="qcurve" smooth="yes"/>
    </contour>
  </outline>
</glyph>
<glyph name="eth" format="2">
  <advance width="596"/>
  <unicode hex="00F0"/>
  <outline>
    <contour>
      <point x="60" y="168" type="qcurve" smooth="yes"/>
      <point x="60" y="282" type="line" smooth="yes"/>
      <point x="60" y="450"/>
      <point x="228" y="450" type="qcurve" smooth="yes"/>
      <point x="354" y="450" type="line"/>
      <point x="310" y="526" type="line"/>
      <point x="202" y="474" type="line"/>
      <point x="148" y="589" type="line"/>
      <point x="243" y="635" type="line"/>
      <point x="210" y="696" type="line"/>
      <point x="346" y="771" type="line"/>
      <point x="384" y="702" type="line"/>
      <point x="463" y="739" type="line"/>
      <point x="516" y="624" type="line"/>
      <point x="452" y="596" type="line"/>
      <point x="502" y="505" type="line" smooth="yes"/>
      <point x="536" y="443"/>
      <point x="536" y="364" type="qcurve" smooth="yes"/>
      <point x="536" y="168" type="line" smooth="yes"/>
      <point x="536" y="0"/>
      <point x="368" y="0" type="qcurve" smooth="yes"/>
      <point x="228" y="0" type="line" smooth="yes"/>
      <point x="60" y="0"/>
    </contour>
    <contour>
      <point x="227" y="158" type="line" smooth="yes"/>
      <point x="227" y="145"/>
      <point x="240" y="145" type="qcurve" smooth="yes"/>
      <point x="356" y="145" type="line" smooth="yes"/>
      <point x="369" y="145"/>
      <point x="369" y="158" type="qcurve" smooth="yes"/>
      <point x="369" y="305" type="line"/>
      <point x="240" y="305" type="line" smooth="yes"/>
      <point x="227" y="305"/>
      <point x="227" y="292" type="qcurve" smooth="yes"/>
    </contour>
  </outline>
</glyph>
<glyph name="lslash" format="2">
  <advance width="363"/>
  <unicode hex="0142"/>
  <outline>
    <contour>
      <point x="-10" y="354" type="line"/>
      <point x="86" y="410" type="line"/>
      <point x="86" y="740" type="line"/>
      <point x="253" y="740" type="line"/>
      <point x="253" y="506" type="line"/>
      <point x="310" y="540" type="line"/>
      <point x="373" y="430" type="line"/>
      <point x="253" y="361" type="line"/>
      <point x="253" y="200" type="line" smooth="yes"/>
      <point x="253" y="141"/>
      <point x="314" y="134" type="qcurve"/>
      <point x="314" y="-11" type="line"/>
      <point x="86" y="-11"/>
      <point x="86" y="217" type="qcurve" smooth="yes"/>
      <point x="86" y="264" type="line"/>
      <point x="52" y="245" type="line"/>
    </contour>
  </outline>
</glyph>
<glyph name="uni0302" format="2">
  <advance width="0"/>
  <unicode hex="0302"/>
  <outline>
    <contour>
      <point x="-458" y="652" type="line"/>
      <point x="-292" y="815" type="line"/>
      <point x="-126" y="652" type="line"/>
      <point x="-194" y="579" type="line"/>
      <point x="-292" y="672" type="line"/>
      <point x="-390" y="579" type="line"/>
    </contour>
  </outline>
</glyph>
<glyph name="uni0308" format="2">
  <advance width="0"/>
  <unicode hex="0308"/>
  <outline>
    <contour>
      <point x="-467" y="598" type="line"/>
      <point x="-467" y="740" type="line"/>
      <point x="-327" y="740" type="line"/>
      <point x="-327" y="598" type="line"/>
    </contour>
    <contour>
      <point x="-257" y="598" type="line"/>
      <point x="-257" y="740" type="line"/>
      <point x="-117" y="740" type="line"/>
      <point x="-117" y="598" type="line"/>
    </contour>
  </outline>
</glyph>
<glyph name="quoteright" format="2">
  <advance width="287"/>
  <unicode hex="2019"/>
  <outline>
    <contour>
      <point x="20" y="456" type="line"/>
      <point x="94" y="740" type="line"/>
      <point x="238" y="740" type="line"/>
      <point x="254" y="716" type="line"/>
      <point x="143" y="424" type="line"/>
    </contour>
  </outline>
</glyph>
<glyph name="daggerdbl" format="2">
  <advance width="502"/>
  <unicode hex="2021"/>
  <outline>
    <contour>
      <point x="50" y="64" type="line"/>
      <point x="50" y="206" type="line"/>
      <point x="176" y="206" type="line"/>
      <point x="176" y="384" type="line"/>
      <point x="50" y="384" type="line"/>
      <point x="50" y="526" type="line"/>
      <point x="176" y="526" type="line"/>
      <point x="176" y="690" type="line"/>
      <point x="326" y="690" type="line"/>
      <point x="326" y="526" type="line"/>
      <point x="452" y="526" type="line"/>
      <point x="452" y="384" type="line"/>
      <point x="326" y="384" type="line"/>
      <point x="326" y="206" type="line"/>
      <point x="452" y="206" type="line"/>
      <point x="452" y="64" type="line"/>
      <point x="326" y="64" type="line"/>
      <point x="326" y="-100" type="line"/>
      <point x="176" y="-100" type="line"/>
      <point x="176" y="64" type="line"/>
    </contour>
  </outline>
</glyph>
<glyph name="guilsinglleft" format="2">
  <advance width="368"/>
  <unicode hex="2039"/>
  <outline>
    <contour>
      <point x="30" y="315" type="line"/>
      <point x="226" y="561" type="line"/>
      <point x="328" y="477" type="line"/>
      <point x="203" y="315" type="line"/>
      <point x="328" y="153" type="line"/>
      <point x="226" y="69" type="line"/>
    </contour>
  </outline>
</glyph>
<glyph name="uni2070" format="2">
  <advance width="369"/>
  <unicode hex="2070"/>
  <outline>
    <contour>
      <point x="31" y="404" type="qcurve" smooth="yes"/>
      <point x="31" y="557" type="line" smooth="yes"/>
      <point x="31" y="690"/>
      <point x="164" y="690" type="qcurve" smooth="yes"/>
      <point x="205" y="690" type="line" smooth="yes"/>
      <point x="338" y="690"/>
      <point x="338" y="557" type="qcurve" smooth="yes"/>
      <point x="338" y="404" type="line" smooth="yes"/>
      <point x="338" y="271"/>
      <point x="205" y="271" type="qcurve" smooth="yes"/>
      <point x="164" y="271" type="line" smooth="yes"/>
      <point x="31" y="271"/>
    </contour>
    <contour>
      <point x="161" y="393" type="line" smooth="yes"/>
      <point x="161" y="389"/>
      <point x="165" y="389" type="qcurve" smooth="yes"/>
      <point x="204" y="389" type="line" smooth="yes"/>
      <point x="208" y="389"/>
      <point x="208" y="393" type="qcurve" smooth="yes"/>
      <point x="208" y="568" type="line" smooth="yes"/>
      <point x="208" y="572"/>
      <point x="204" y="572" type="qcurve" smooth="yes"/>
      <point x="165" y="572" type="line" smooth="yes"/>
      <point x="161" y="572"/>
      <point x="161" y="568" type="qcurve" smooth="yes"/>
    </contour>
  </outline>
</glyph>
<glyph name="Omega" format="2">
  <advance width="712"/>
  <unicode hex="2126"/>
  <outline>
    <contour>
      <point x="48" y="0" type="line"/>
      <point x="48" y="157" type="line"/>
      <point x="100" y="157" type="line"/>
      <point x="98" y="160" type="line" smooth="yes"/>
      <point x="68" y="205"/>
      <point x="68" y="264" type="qcurve" smooth="yes"/>
      <point x="68" y="514" type="line" smooth="yes"/>
      <point x="68" y="690"/>
      <point x="244" y="690" type="qcurve" smooth="yes"/>
      <point x="468" y="690" type="line" smooth="yes"/>
      <point x="644" y="690"/>
      <point x="644" y="514" type="qcurve" smooth="yes"/>
      <point x="644" y="264" type="line" smooth="yes"/>
      <point x="644" y="205"/>
      <point x="614" y="160" type="qcurve" smooth="yes"/>
      <point x="612" y="157" type="line"/>
      <point x="664" y="157" type="line"/>
      <point x="664" y="0" type="line"/>
      <point x="398" y="0" type="line"/>
      <point x="398" y="131" type="line"/>
      <point x="460" y="213" type="line" smooth="yes"/>
      <point x="470" y="226"/>
      <point x="470" y="249" type="qcurve" smooth="yes"/>
      <point x="470" y="522" type="line" smooth="yes"/>
      <point x="470" y="533"/>
      <point x="459" y="533" type="qcurve" smooth="yes"/>
      <point x="253" y="533" type="line" smooth="yes"/>
      <point x="242" y="533"/>
      <point x="242" y="522" type="qcurve" smooth="yes"/>
      <point x="242" y="249" type="line" smooth="yes"/>
      <point x="242" y="226"/>
      <point x="252" y="213" type="qcurve" smooth="yes"/>
      <point x="314" y="131" type="line"/>
      <point x="314" y="0" type="line"/>
    </contour>
  </outline>
</glyph>
<glyph name="summation" format="2">
  <advance width="610"/>
  <unicode hex="2211"/>
  <outline>
    <contour>
      <point x="50" y="34" type="line"/>
      <point x="234" y="295" type="line"/>
      <point x="50" y="556" type="line"/>
      <point x="50" y="690" type="line"/>
      <point x="560" y="690" type="line"/>
      <point x="560" y="533" type="line"/>
      <point x="262" y="533" type="line"/>
      <point x="429" y="295" type="line"/>
      <point x="262" y="57" type="line"/>
      <point x="560" y="57" type="line"/>
      <point x="560" y="-100" type="line"/>
      <point x="50" y="-100" type="line"/>
    </contour>
  </outline>
</glyph>
<glyph name="uni0301.cap" format="2">
  <advance width="0"/>
  <outline>
    <contour>
      <point x="-432" y="800" type="line"/>
      <point x="-288" y="963" type="line"/>
      <point x="-200" y="880" type="line"/>
      <point x="-354" y="726" type="line"/>
    </contour>
  </outline>
</glyph>
